<?xml version="1.0" standalone="no"?>
<!DOCTYPE svg PUBLIC "-//W3C//DTD SVG 20010904//EN"
 "http://www.w3.org/TR/2001/REC-SVG-20010904/DTD/svg10.dtd">
<svg version="1.0" xmlns="http://www.w3.org/2000/svg"
 width="452.000000pt" height="452.000000pt" viewBox="0 0 452.000000 452.000000"
 preserveAspectRatio="xMidYMid meet">

<g transform="translate(0.000000,452.000000) scale(0.100000,-0.100000)"
fill="#000000" stroke="none">
<path d="M1675 4238 c-33 -19 -44 -41 -45 -82 0 -39 7 -47 202 -243 l202 -203
-260 0 c-143 0 -298 -5 -344 -10 -236 -29 -434 -126 -601 -294 -123 -124 -207
-272 -257 -455 l-27 -96 0 -855 c0 -903 -1 -891 47 -1040 65 -202 212 -398
388 -517 120 -81 286 -144 431 -163 57 -8 344 -10 904 -8 811 4 821 4 900 26
394 109 660 388 747 787 10 47 13 246 13 915 l0 855 -27 96 c-83 302 -279 538
-552 664 -165 77 -291 95 -650 95 l-260 0 202 203 c195 196 202 204 202 243
-1 43 -13 64 -49 83 -53 29 -74 13 -333 -247 l-248 -247 -248 248 c-210 210
-253 248 -282 252 -19 3 -44 0 -55 -7z m1393 -719 c198 -22 346 -93 487 -234
140 -140 213 -290 235 -486 8 -63 10 -353 8 -874 -4 -772 -4 -781 -26 -860
-71 -255 -248 -457 -480 -551 -153 -62 -108 -59 -1032 -59 -776 0 -850 1 -909
18 -155 42 -258 99 -368 201 -118 110 -190 229 -235 391 -22 79 -22 88 -26
860 -2 526 0 811 8 875 44 381 336 675 712 719 111 13 1510 13 1626 0z"/>
<path d="M1690 2211 c-300 -76 -555 -143 -567 -149 -13 -7 -26 -27 -31 -45
-16 -59 22 -117 75 -117 13 0 239 54 503 120 264 66 484 120 490 120 6 0 10
-79 10 -224 l0 -224 26 -31 c19 -23 34 -31 57 -31 18 0 282 63 587 140 608
152 590 145 590 221 0 43 -24 74 -63 84 -13 4 -224 -44 -520 -118 l-497 -125
0 230 0 230 -29 29 c-20 19 -39 29 -58 28 -15 0 -273 -63 -573 -138z"/>
</g>
</svg>
