<?xml version="1.0" standalone="no"?>
<!DOCTYPE svg PUBLIC "-//W3C//DTD SVG 20010904//EN"
 "http://www.w3.org/TR/2001/REC-SVG-20010904/DTD/svg10.dtd">
<svg version="1.0" xmlns="http://www.w3.org/2000/svg"
 width="452.000000pt" height="452.000000pt" viewBox="0 0 452.000000 452.000000"
 preserveAspectRatio="xMidYMid meet">

<g transform="translate(0.000000,452.000000) scale(0.100000,-0.100000)"
fill="#000000" stroke="none">
<path d="M1005 4065 l-25 -24 0 -1781 0 -1781 25 -24 c54 -55 13 -91 885 803
200 204 366 372 370 372 4 0 173 -170 375 -377 872 -894 826 -853 880 -798
l25 24 0 1781 0 1781 -25 24 -24 25 -1231 0 -1231 0 -24 -25z m2393 -1752 c1
-893 -1 -1623 -5 -1622 -5 1 -113 110 -241 242 -604 627 -867 888 -892 888
-26 0 -242 -215 -877 -873 -136 -141 -251 -256 -255 -257 -10 -1 -11 3233 -1
3242 3 4 515 6 1137 5 l1131 -3 3 -1622z"/>
</g>
</svg>
