<?xml version="1.0" standalone="no"?>
<!DOCTYPE svg PUBLIC "-//W3C//DTD SVG 20010904//EN"
 "http://www.w3.org/TR/2001/REC-SVG-20010904/DTD/svg10.dtd">
<svg version="1.0" xmlns="http://www.w3.org/2000/svg"
 width="452.000000pt" height="452.000000pt" viewBox="0 0 452.000000 452.000000"
 preserveAspectRatio="xMidYMid meet">

<g transform="translate(0.000000,452.000000) scale(0.100000,-0.100000)"
fill="#000000" stroke="none">
<path d="M2200 3903 c-8 -3 -20 -11 -26 -17 -28 -28 -243 -227 -274 -255 l-35
-31 -575 0 c-548 0 -578 -1 -629 -20 -67 -24 -103 -57 -135 -127 l-26 -54 0
-1344 c0 -773 4 -1346 9 -1349 5 -3 12 -18 15 -32 11 -41 46 -82 102 -120 l52
-34 1566 0 c910 0 1566 4 1566 9 0 5 10 11 23 15 33 8 97 75 121 126 21 45 21
46 21 1395 0 1317 0 1351 -19 1389 -27 54 -84 106 -142 128 -46 17 -89 18
-621 18 l-572 0 -82 78 c-46 42 -117 110 -159 150 -67 65 -80 74 -120 77 -25
3 -52 2 -60 -2z m110 -204 c30 -28 94 -89 142 -135 48 -45 96 -88 107 -93 13
-7 214 -11 601 -11 556 0 582 -1 619 -19 70 -36 66 54 66 -1381 0 -1401 2
-1339 -54 -1377 -25 -17 -101 -18 -1531 -21 -1059 -2 -1516 0 -1542 8 -25 7
-46 23 -63 48 l-25 37 0 1305 c0 1258 1 1306 19 1333 10 16 33 37 50 48 30 18
58 19 626 19 l594 0 68 60 c38 32 109 97 158 144 50 47 95 85 100 85 6 0 35
-22 65 -50z"/>
<path d="M2137 2900 c-132 -23 -285 -154 -332 -285 -10 -27 -22 -55 -27 -61
-5 -7 -13 -46 -17 -87 -31 -272 100 -499 335 -585 152 -55 344 -9 468 114 57
56 119 162 137 234 18 71 17 240 0 310 -31 120 -134 256 -240 316 -82 46 -208
63 -324 44z m165 -141 c67 -14 127 -48 179 -102 54 -56 75 -98 94 -193 14 -72
15 -88 1 -150 -20 -97 -49 -154 -108 -213 -58 -58 -156 -101 -231 -101 -57 0
-152 37 -207 80 -48 38 -113 140 -128 202 -54 214 74 439 271 477 60 12 70 12
129 0z"/>
<path d="M1834 1818 c-43 -9 -101 -28 -127 -43 -59 -33 -161 -136 -178 -179
-7 -17 -18 -38 -25 -46 -17 -22 -44 -150 -44 -214 0 -62 16 -86 59 -86 45 0
58 19 75 108 24 132 66 205 158 275 71 53 121 58 515 55 339 -3 360 -4 404
-24 119 -55 219 -207 219 -334 0 -50 24 -80 63 -80 61 1 71 18 64 112 -10 141
-75 277 -172 356 -132 108 -154 112 -606 115 -270 2 -339 -1 -405 -15z"/>
</g>
</svg>
